<?xml version="1.0" standalone="no"?>
<!DOCTYPE svg PUBLIC "-//W3C//DTD SVG 20010904//EN"
 "http://www.w3.org/TR/2001/REC-SVG-20010904/DTD/svg10.dtd">
<svg version="1.0" xmlns="http://www.w3.org/2000/svg"
 width="866.000000pt" height="866.000000pt" viewBox="0 0 866.000000 866.000000"
 preserveAspectRatio="xMidYMid meet">
<metadata>
Created by potrace 1.11, written by Peter Selinger 2001-2013
</metadata>
<g transform="translate(0.000000,866.000000) scale(0.100000,-0.100000)"
fill="#000000" stroke="none">
<path d="M0 4330 l0 -4330 4330 0 4330 0 0 4330 0 4330 -4330 0 -4330 0 0
-4330z m1604 3381 c33 -12 80 -33 105 -47 29 -17 511 -490 1311 -1290 972
-971 1271 -1264 1289 -1264 17 0 55 31 130 104 l105 105 7 94 c11 143 77 320
160 425 46 59 1845 1859 1877 1879 69 43 179 17 222 -51 32 -52 28 -132 -9
-182 -16 -21 -316 -325 -666 -674 -350 -349 -650 -653 -666 -674 -102 -137 80
-319 217 -217 21 16 332 322 689 681 358 358 662 658 677 666 15 8 48 14 73
14 114 0 181 -83 160 -197 -6 -34 -82 -114 -690 -723 -533 -535 -685 -693
-694 -722 -24 -75 31 -176 109 -199 91 -27 51 -61 795 681 472 471 691 684
717 695 50 20 83 19 135 -6 82 -39 115 -137 74 -217 -27 -52 -1850 -1868
-1923 -1916 -135 -87 -280 -134 -437 -141 l-94 -3 -95 -95 c-87 -87 -94 -97
-88 -123 5 -21 376 -399 1265 -1289 796 -797 1268 -1277 1285 -1306 120 -211
92 -455 -74 -632 -164 -175 -433 -212 -650 -90 -28 17 -497 477 -1280 1258
-679 678 -1255 1247 -1279 1264 l-44 31 -37 -21 c-21 -12 -539 -523 -1151
-1136 -1242 -1243 -1361 -1358 -1452 -1403 -184 -89 -374 -76 -542 39 -229
155 -290 486 -135 719 26 38 483 503 1268 1289 675 675 1235 1244 1245 1263
l19 35 -84 86 c-46 48 -190 197 -321 332 l-238 245 23 43 c47 91 32 209 -36
287 -70 80 -205 106 -299 58 -26 -12 -48 -21 -50 -19 -2 2 7 24 19 50 48 94
22 229 -58 299 -77 68 -197 83 -286 36 -48 -25 -51 -18 -21 40 26 51 28 145 5
200 -39 90 -120 147 -221 156 -49 3 -72 0 -110 -17 -62 -27 -68 -27 -51 7 66
127 26 270 -96 345 -64 40 -144 46 -217 18 -30 -11 -57 -18 -60 -16 -2 3 3 21
13 41 45 96 25 206 -53 284 -73 73 -169 97 -256 64 -73 -28 -75 -28 -107 2
-67 64 -108 188 -108 329 0 106 18 185 62 267 62 117 196 218 334 253 78 19
210 13 288 -14z"/>
<path d="M1372 7396 c-103 -37 -157 -155 -117 -254 11 -26 380 -402 1264
-1287 687 -687 1260 -1269 1275 -1292 84 -136 87 -304 8 -443 -16 -28 -490
-511 -1282 -1305 -1028 -1030 -1260 -1267 -1270 -1299 -36 -114 42 -236 162
-252 97 -13 22 -82 1393 1285 1259 1256 1271 1268 1345 1302 69 31 83 34 170
34 171 0 38 118 1490 -1331 1115 -1112 1290 -1284 1325 -1293 56 -15 84 -13
130 8 101 47 148 155 110 249 -11 26 -386 407 -1279 1302 -1251 1254 -1263
1266 -1297 1340 -32 70 -34 82 -34 175 0 138 16 167 169 322 141 142 165 155
336 184 235 39 278 54 370 127 64 50 160 144 160 157 0 5 -151 161 -335 345
l-334 334 -71 -74 c-132 -138 -154 -183 -205 -419 -32 -150 -61 -218 -111
-262 -21 -19 -77 -74 -126 -122 -108 -109 -168 -140 -280 -145 -84 -4 -149 11
-228 55 -29 16 -493 473 -1305 1284 -892 891 -1271 1263 -1297 1274 -44 18
-90 18 -136 1z"/>
</g>
</svg>
